<svg width="20" height="21" viewBox="0 0 20 21" fill="none" xmlns="http://www.w3.org/2000/svg">
<path d="M16 6.5C17.6569 6.5 19 5.15685 19 3.5C19 1.84315 17.6569 0.5 16 0.5C14.3431 0.5 13 1.84315 13 3.5C13 5.15685 14.3431 6.5 16 6.5Z" stroke="url(#paint0_linear_35_11727)" stroke-linecap="round" stroke-linejoin="round"/>
<path d="M4 13.5C5.65685 13.5 7 12.1569 7 10.5C7 8.84315 5.65685 7.5 4 7.5C2.34315 7.5 1 8.84315 1 10.5C1 12.1569 2.34315 13.5 4 13.5Z" stroke="url(#paint1_linear_35_11727)" stroke-linecap="round" stroke-linejoin="round"/>
<path d="M16 20.5C17.6569 20.5 19 19.1569 19 17.5C19 15.8431 17.6569 14.5 16 14.5C14.3431 14.5 13 15.8431 13 17.5C13 19.1569 14.3431 20.5 16 20.5Z" stroke="url(#paint2_linear_35_11727)" stroke-linecap="round" stroke-linejoin="round"/>
<path d="M6.58984 12.0098L13.4198 15.9898" stroke="url(#paint3_linear_35_11727)" stroke-linecap="round" stroke-linejoin="round"/>
<path d="M13.4098 5.00977L6.58984 8.98977" stroke="url(#paint4_linear_35_11727)" stroke-linecap="round" stroke-linejoin="round"/>
<defs>
<linearGradient id="paint0_linear_35_11727" x1="15.3472" y1="6.20454" x2="20.2" y2="3.6756" gradientUnits="userSpaceOnUse">
<stop stop-color="#016DEA"/>
<stop offset="1" stop-color="#FA0101"/>
</linearGradient>
<linearGradient id="paint1_linear_35_11727" x1="3.34722" y1="13.2045" x2="8.20004" y2="10.6756" gradientUnits="userSpaceOnUse">
<stop stop-color="#016DEA"/>
<stop offset="1" stop-color="#FA0101"/>
</linearGradient>
<linearGradient id="paint2_linear_35_11727" x1="15.3472" y1="20.2045" x2="20.2" y2="17.6756" gradientUnits="userSpaceOnUse">
<stop stop-color="#016DEA"/>
<stop offset="1" stop-color="#FA0101"/>
</linearGradient>
<linearGradient id="paint3_linear_35_11727" x1="9.26176" y1="15.7938" x2="13.1647" y2="12.3034" gradientUnits="userSpaceOnUse">
<stop stop-color="#016DEA"/>
<stop offset="1" stop-color="#FA0101"/>
</linearGradient>
<linearGradient id="paint4_linear_35_11727" x1="9.25785" y1="8.79378" x2="13.1601" y2="5.3091" gradientUnits="userSpaceOnUse">
<stop stop-color="#016DEA"/>
<stop offset="1" stop-color="#FA0101"/>
</linearGradient>
</defs>
</svg>
