<svg width="58" height="48" viewBox="0 0 58 48" fill="none" xmlns="http://www.w3.org/2000/svg">
<path d="M41.0812 36.073C41.0812 37.9224 40.6564 39.6796 39.8887 41.2444L39.8147 41.3944C37.8351 45.3008 33.7277 48 28.9969 48C24.2543 48 20.1587 45.3008 18.179 41.3944L18.105 41.2444L0.483133 6.471C-1.02108 3.49888 1.16899 0 4.53982 0H21.4329C23.1515 0 24.718 0.957385 25.4857 2.47228L28.993 9.39314L39.8848 30.9016C40.6564 32.4665 41.0812 34.2275 41.0812 36.073Z" fill="url(#paint0_linear_3_11471)"/>
<path d="M53.4623 0C56.8331 0 59.0232 3.49888 57.5151 6.471L42.5119 36.073L39.8815 41.2445C40.6531 39.6796 41.074 37.9186 41.074 36.073C41.074 34.2275 40.6492 32.4665 39.8815 30.9016L28.9935 9.39314L32.5008 2.47228C33.2684 0.957385 34.8389 0 36.5535 0H53.4623Z" fill="url(#paint1_linear_3_11471)"/>
<defs>
<linearGradient id="paint0_linear_3_11471" x1="-8.42944e-05" y1="23.9998" x2="41.0802" y2="23.9998" gradientUnits="userSpaceOnUse">
<stop stop-color="#FA4001"/>
<stop offset="0.333333" stop-color="#CD0D14"/>
<stop offset="0.666667" stop-color="#A91D1E"/>
<stop offset="1" stop-color="#812924"/>
</linearGradient>
<linearGradient id="paint1_linear_3_11471" x1="28.9941" y1="20.6235" x2="58.0018" y2="20.6235" gradientUnits="userSpaceOnUse">
<stop stop-color="#016DEA"/>
<stop offset="0.334096" stop-color="#005FCD"/>
<stop offset="0.634882" stop-color="#0052B1"/>
<stop offset="1" stop-color="#003B7E"/>
</linearGradient>
</defs>
</svg>
