<svg width="16" height="17" viewBox="0 0 16 17" fill="none" xmlns="http://www.w3.org/2000/svg">
<path d="M10.6265 0.778882C10.564 0.857007 10.5609 0.903882 10.5609 1.43826V2.01638L10.6515 2.10701C10.7015 2.15701 10.7734 2.19763 10.8109 2.19763C10.9015 2.19763 11.0484 2.11638 11.0734 2.05701C11.0828 2.02888 11.0922 1.74138 11.0922 1.41951C11.0922 0.847632 11.089 0.832007 11.0203 0.766382C10.9109 0.663257 10.7109 0.672632 10.6265 0.778882Z" fill="url(#paint0_linear_35_11762)"/>
<path d="M8.15566 1.43203C8.02753 1.5664 8.05566 1.6664 8.34316 2.1664C8.48691 2.4164 8.63378 2.64453 8.66816 2.67265C8.82753 2.8039 9.09316 2.68203 9.09316 2.4789C9.09316 2.3664 8.59316 1.47265 8.49003 1.40078C8.38691 1.3289 8.24003 1.3414 8.15566 1.43203Z" fill="url(#paint1_linear_35_11762)"/>
<path d="M13.1609 1.40703C13.0672 1.48828 12.5609 2.38515 12.5609 2.47265C12.5609 2.51328 12.6015 2.58828 12.6515 2.63828C12.7578 2.74453 12.8953 2.75703 12.9953 2.67265C13.0984 2.58515 13.5922 1.69765 13.5922 1.59765C13.5922 1.39765 13.314 1.27578 13.1609 1.40703Z" fill="url(#paint2_linear_35_11762)"/>
<path d="M8.27029 3.64138C8.14841 3.80701 7.02966 5.86638 7.02966 5.92888C7.02966 5.95701 7.04529 6.01013 7.06404 6.04763C7.11716 6.14451 10.4859 10.2289 10.6234 10.3601C10.7515 10.4851 10.839 10.5039 10.9578 10.4383C10.9953 10.4164 11.6047 9.69763 12.314 8.83826C13.0234 7.97888 13.8328 6.99763 14.114 6.65701C14.5234 6.16013 14.6234 6.01951 14.6234 5.94451C14.6234 5.88201 14.4297 5.50076 14.0265 4.76638C13.6984 4.16951 13.4015 3.65076 13.364 3.61013L13.3015 3.54138H10.8234H8.34529L8.27029 3.64138ZM10.264 4.26638C10.2047 4.37576 10.0453 4.66326 9.91091 4.90701C9.77966 5.15388 9.66404 5.35388 9.65466 5.35388C9.64529 5.35388 9.48279 5.06326 9.28904 4.71326L8.94216 4.07263H9.65779H10.3734L10.264 4.26638ZM12.6078 4.28201C12.5422 4.40076 12.3859 4.68826 12.2547 4.92576C12.1234 5.16013 12.0078 5.34451 11.9953 5.33201C11.964 5.30076 11.3109 4.11326 11.3109 4.09138C11.3109 4.07888 11.6297 4.07263 12.0172 4.07263H12.7234L12.6078 4.28201ZM9.18591 5.65388C9.18591 5.66013 8.87029 5.66638 8.48279 5.66638C8.09529 5.66638 7.77966 5.65701 7.77966 5.64763C7.77966 5.63513 7.93591 5.34138 8.12966 4.99138L8.47654 4.35388L8.83279 4.99763C9.02654 5.35076 9.18591 5.64451 9.18591 5.65388ZM11.2109 5.04451C11.3859 5.36326 11.5297 5.63513 11.5297 5.64451C11.5297 5.65701 11.2109 5.66638 10.8234 5.66638C10.4359 5.66638 10.1234 5.65388 10.1297 5.64138C10.1359 5.62576 10.2922 5.33201 10.4828 4.98826C10.764 4.47263 10.8328 4.36951 10.8609 4.41326C10.8797 4.44138 11.0359 4.72576 11.2109 5.04451ZM13.5515 5.01951L13.8984 5.65076L13.5422 5.66013C13.3453 5.66326 13.0265 5.66326 12.8297 5.66013L12.4703 5.65076L12.8203 5.01638C13.0109 4.66951 13.1734 4.38513 13.1828 4.38513C13.1922 4.38513 13.3578 4.66951 13.5515 5.01951ZM9.83591 7.59451C10.0453 8.36013 10.2109 8.99451 10.2047 9.00076C10.1984 9.00701 9.70779 8.42576 9.11716 7.70701C8.52341 6.98826 8.00154 6.35388 7.95466 6.29763L7.86716 6.19763H8.66091H9.45154L9.83591 7.59451ZM11.6422 6.25076C11.6328 6.28201 11.4578 6.92576 11.2484 7.68201C11.0422 8.43826 10.8609 9.08201 10.8484 9.11638C10.8297 9.15701 10.7172 8.78201 10.4703 7.88513C10.2765 7.17888 10.0922 6.51013 10.0609 6.39763L10.0015 6.19763H10.8297C11.6047 6.19763 11.6578 6.20076 11.6422 6.25076ZM13.6484 6.36638C13.2984 6.80388 11.4515 9.03513 11.4453 9.02888C11.439 9.02263 12.1609 6.35701 12.2015 6.23513C12.2109 6.20701 12.4015 6.19763 12.9984 6.19763H13.7859L13.6484 6.36638Z" fill="url(#paint3_linear_35_11762)"/>
<path d="M5.51147 9.36951C5.17397 9.44138 4.87397 9.59451 3.66772 10.2914L2.48647 10.9726L2.3771 10.782C2.24585 10.5414 2.17085 10.457 2.02397 10.382C1.86772 10.3039 1.69272 10.2789 1.54585 10.3195C1.4771 10.3383 1.2021 10.4758 0.936474 10.6258C0.561474 10.8414 0.436474 10.9289 0.367724 11.0258C0.264599 11.1726 0.220849 11.3789 0.252099 11.5601C0.267724 11.6445 0.673974 12.3976 1.42085 13.7164C2.0521 14.832 2.60835 15.807 2.65835 15.8851C2.70835 15.9633 2.79897 16.0601 2.86147 16.1039C2.96147 16.1726 3.0146 16.182 3.23022 16.182H3.48335L3.92085 15.9351C4.48647 15.6164 4.5146 15.5945 4.6146 15.4258C4.68022 15.3133 4.69897 15.2414 4.69897 15.0914C4.7021 14.9195 4.68647 14.8726 4.5521 14.6226C4.43335 14.407 4.40835 14.3383 4.44272 14.3195C4.4646 14.3039 4.56772 14.2445 4.67085 14.1851L4.85835 14.0789L6.7021 14.5758C7.71772 14.8476 8.65835 15.0851 8.79585 15.1039C9.18335 15.1539 9.67397 15.0695 10.0115 14.8945C10.3646 14.7133 15.3521 11.607 15.4583 11.5039C15.6521 11.3164 15.7271 11.1164 15.7427 10.7601C15.7583 10.3601 15.6865 10.1633 15.4365 9.91013C15.2865 9.76013 15.224 9.72263 15.0302 9.66326C14.8427 9.60701 14.7552 9.59763 14.5177 9.61326C13.9615 9.64451 13.7958 9.72263 11.8552 10.8539C10.4646 11.6664 10.2333 11.7945 10.1021 11.8351L10.0365 11.857L10.0958 11.6976C10.1677 11.5039 10.174 11.1695 10.1083 10.9758C10.0365 10.7758 9.8646 10.557 9.6771 10.432C9.5521 10.3476 9.42085 10.3039 9.09897 10.2289C8.55835 10.1039 8.1146 9.96951 7.2521 9.66326C6.8646 9.52576 6.46772 9.39451 6.37085 9.36951C6.15522 9.31326 5.77085 9.31326 5.51147 9.36951ZM7.04585 10.1601C7.88647 10.4601 8.41147 10.6226 8.94585 10.7414C9.33335 10.8289 9.45835 10.8976 9.55522 11.0664C9.69272 11.3101 9.60522 11.6414 9.37397 11.7633C9.16147 11.8789 8.98022 11.8508 7.77397 11.5133C7.4021 11.407 7.07397 11.3226 7.04585 11.3226C6.95835 11.3226 6.81147 11.4945 6.81147 11.5976C6.81147 11.7758 6.88335 11.8164 7.46772 11.982C8.78335 12.3539 9.39272 12.4726 9.81147 12.4351C10.2521 12.3945 10.4458 12.3008 12.1177 11.3258C12.9802 10.8258 13.774 10.3726 13.8833 10.3226C14.6646 9.96951 15.2177 10.132 15.2177 10.7133C15.2177 11.0851 15.3802 10.9601 12.5302 12.7195C11.1302 13.582 9.89272 14.3383 9.78022 14.3945C9.66772 14.4539 9.49897 14.5195 9.40522 14.5445C9.02085 14.6351 8.93335 14.6195 6.8521 14.0601C5.78647 13.7758 4.86772 13.5414 4.81147 13.5414C4.7396 13.5414 4.61147 13.5945 4.4271 13.7008C4.2396 13.8101 4.1396 13.8508 4.11772 13.8289C4.1021 13.8133 3.78647 13.2695 3.42085 12.6226L2.75522 11.4476L3.0396 11.2789C5.40522 9.89763 5.51147 9.84451 5.99897 9.86638C6.2396 9.87888 6.3396 9.90701 7.04585 10.1601ZM1.77085 10.8476C1.79272 10.8601 2.34585 11.8195 2.99897 12.9758C4.1146 14.9445 4.18647 15.082 4.14585 15.1445C4.09272 15.2258 3.31772 15.6664 3.2271 15.6664C3.19272 15.6664 3.14897 15.6476 3.13335 15.6258C3.03647 15.507 0.780224 11.4758 0.780224 11.4226C0.780224 11.3414 0.817724 11.3133 1.2771 11.0508C1.68647 10.8164 1.70835 10.807 1.77085 10.8476Z" fill="url(#paint4_linear_35_11762)"/>
<path d="M1.35779 11.4633C1.30466 11.5164 1.27966 11.5727 1.27966 11.6508C1.27966 11.8071 1.32654 11.8821 1.45779 11.9352C1.75154 12.0602 1.99841 11.7258 1.79216 11.4821C1.72341 11.4008 1.68904 11.3852 1.57341 11.3852C1.46716 11.3852 1.41404 11.4039 1.35779 11.4633Z" fill="url(#paint5_linear_35_11762)"/>
<defs>
<linearGradient id="paint0_linear_35_11762" x1="10.7687" y1="0.76795" x2="11.2972" y2="0.865243" gradientUnits="userSpaceOnUse">
<stop stop-color="#016DEA"/>
<stop offset="1" stop-color="#FA0101"/>
</linearGradient>
<linearGradient id="paint1_linear_35_11762" x1="8.47807" y1="1.42196" x2="9.38391" y2="1.76938" gradientUnits="userSpaceOnUse">
<stop stop-color="#016DEA"/>
<stop offset="1" stop-color="#FA0101"/>
</linearGradient>
<linearGradient id="paint2_linear_35_11762" x1="12.9643" y1="1.42017" x2="13.8845" y2="1.77965" gradientUnits="userSpaceOnUse">
<stop stop-color="#016DEA"/>
<stop offset="1" stop-color="#FA0101"/>
</linearGradient>
<linearGradient id="paint3_linear_35_11762" x1="10.0004" y1="3.88283" x2="15.8914" y2="7.24492" gradientUnits="userSpaceOnUse">
<stop stop-color="#016DEA"/>
<stop offset="1" stop-color="#FA0101"/>
</linearGradient>
<linearGradient id="paint4_linear_35_11762" x1="6.30685" y1="9.66486" x2="12.9805" y2="17.5303" gradientUnits="userSpaceOnUse">
<stop stop-color="#016DEA"/>
<stop offset="1" stop-color="#FA0101"/>
</linearGradient>
<linearGradient id="paint5_linear_35_11762" x1="1.50994" y1="11.4136" x2="1.98195" y2="11.6645" gradientUnits="userSpaceOnUse">
<stop stop-color="#016DEA"/>
<stop offset="1" stop-color="#FA0101"/>
</linearGradient>
</defs>
</svg>
