<svg width="24" height="25" viewBox="0 0 24 25" fill="none" xmlns="http://www.w3.org/2000/svg">
<g clip-path="url(#clip0_35_11711)">
<path d="M15.6531 0.621976L15.5312 0.748538V2.04697V3.34541L15.6531 3.47197C15.8312 3.64541 16.1687 3.64541 16.3469 3.47197L16.4687 3.34541V2.04697V0.748538L16.3469 0.621976C16.2484 0.523539 16.1781 0.500101 16 0.500101C15.8219 0.500101 15.7516 0.523539 15.6531 0.621976Z" fill="url(#paint0_linear_35_11711)"/>
<path d="M11.6828 2.55776C11.5703 2.67026 11.5469 2.73588 11.5469 2.91401C11.5469 3.13432 11.5469 3.13901 12.1937 3.79057C12.5453 4.15619 12.9203 4.51244 13.0187 4.58275C13.2766 4.77494 13.4781 4.76557 13.6844 4.55932C13.8906 4.35307 13.9 4.15151 13.7078 3.89369C13.6375 3.79526 13.2812 3.42026 12.9156 3.06401C12.2641 2.42182 12.2594 2.42182 12.0391 2.42182C11.8609 2.42182 11.7953 2.44526 11.6828 2.55776Z" fill="url(#paint1_linear_35_11711)"/>
<path d="M19.0844 3.06406C18.3016 3.82813 18.1562 4.01563 18.1562 4.24063C18.1562 4.46563 18.4094 4.71875 18.6344 4.71875C18.8594 4.71875 19.0469 4.57344 19.8109 3.79063C20.4531 3.13906 20.4531 3.13438 20.4531 2.91406C20.4531 2.73594 20.4297 2.67031 20.3172 2.55782C20.2047 2.44532 20.1391 2.42188 19.9609 2.42188C19.7406 2.42188 19.7359 2.42188 19.0844 3.06406Z" fill="url(#paint2_linear_35_11711)"/>
<path d="M15.3578 5.55784C14.8703 5.73596 14.514 6.06409 14.2797 6.53752C14.1719 6.76252 14.1531 6.87033 14.1156 7.54533C14.0875 8.03283 14.0406 8.42658 13.9844 8.64689C13.5578 10.2219 11.964 11.5578 9.33905 12.5422C8.74842 12.7625 7.61874 13.1094 7.49686 13.1094C7.46874 13.1094 7.40311 13.0344 7.35155 12.9406C7.23905 12.7297 7.04218 12.561 6.74218 12.425L6.5078 12.3125H3.87812H1.24844L1.12187 12.4344L1 12.561V18.4063V24.2516L1.12187 24.3781L1.24844 24.5H3.88281H6.52186L6.81718 24.3453C7.07968 24.2094 7.3703 23.9281 7.43124 23.75C7.44061 23.7125 7.70311 23.7594 8.26561 23.9047C9.25467 24.1625 10.0515 24.3313 10.6797 24.4156C11.0359 24.4625 12.025 24.4766 14.7812 24.4766H18.414L18.6953 24.3406C19.0562 24.1625 19.4125 23.8063 19.5906 23.4453C19.7172 23.1828 19.7265 23.1266 19.7265 22.625C19.7265 22.1422 19.7125 22.0578 19.6093 21.8469L19.4922 21.6125L19.7687 21.4484C20.0968 21.2563 20.3593 20.975 20.5328 20.6188C20.6406 20.3984 20.664 20.2766 20.6781 19.9063C20.6968 19.4797 20.6547 19.2688 20.4812 18.8703C20.4578 18.8141 20.5187 18.7531 20.7297 18.6219C21.0625 18.4203 21.2968 18.1578 21.475 17.7969C21.5921 17.5625 21.6015 17.4922 21.6015 17C21.6015 16.5172 21.5875 16.4328 21.4843 16.2219L21.3671 15.9875L21.6437 15.8234C21.9718 15.6313 22.2343 15.35 22.4078 14.9891C22.5296 14.75 22.539 14.6797 22.539 14.1875C22.539 13.686 22.5296 13.6297 22.4031 13.3672C22.225 13.0063 21.8687 12.65 21.5078 12.4719L21.2265 12.336L19.225 12.3219L17.2281 12.3078L17.3547 11.9235C17.7015 10.8969 17.8703 9.85627 17.9078 8.53908C17.9406 7.39065 17.889 6.90315 17.7015 6.5094C17.5422 6.16721 17.1765 5.80627 16.8203 5.63284C16.5765 5.51096 16.4781 5.49221 16.0703 5.47815C15.7 5.46877 15.55 5.48752 15.3578 5.55784ZM16.4125 6.54221C16.6093 6.64533 16.7031 6.73908 16.825 6.96877C16.9047 7.11408 16.914 7.24533 16.914 8.2344C16.9093 9.72033 16.7453 10.7328 16.3234 11.8672L16.164 12.2891L15.2687 12.3031L14.3687 12.3125L14.2469 12.4391C14.0734 12.6125 14.0734 12.95 14.2469 13.1235L14.3687 13.2453L17.6312 13.2594C20.8703 13.2735 20.8984 13.2735 21.0859 13.3719C21.4187 13.55 21.5781 13.8172 21.5781 14.1875C21.5781 14.5578 21.4187 14.825 21.0859 15.0031C20.9078 15.0969 20.8234 15.1016 19.5062 15.1156L18.114 15.1344L17.9968 15.2516C17.8234 15.4203 17.8234 15.7625 17.9922 15.9359C18.1093 16.0531 18.1234 16.0531 19.0375 16.0719C19.8625 16.0859 19.9797 16.1 20.1484 16.1891C20.4765 16.3625 20.6406 16.6297 20.6406 17C20.6406 17.3703 20.4812 17.6375 20.1484 17.8156C19.9703 17.9094 19.8859 17.9141 18.5687 17.9281L17.1765 17.9469L17.0593 18.0641C16.8859 18.2328 16.8859 18.575 17.0547 18.7484C17.1718 18.8656 17.1859 18.8656 18.1 18.8844C18.8828 18.8984 19.0468 18.9172 19.1875 18.9875C19.4172 19.1094 19.5109 19.1984 19.614 19.4C19.7828 19.7281 19.6984 20.2484 19.4406 20.4734C19.1593 20.7172 19.1125 20.7266 17.6312 20.7406L16.239 20.7594L16.1218 20.8766C15.9484 21.0453 15.9484 21.3875 16.1172 21.5609C16.2343 21.6781 16.2484 21.6781 17.1625 21.6969C18.1281 21.7156 18.2453 21.7391 18.5031 21.9641C18.7609 22.1891 18.8453 22.7094 18.6765 23.0375C18.5734 23.2344 18.4797 23.3281 18.25 23.45C18.0953 23.5344 17.9265 23.5391 15.789 23.5531C13.0375 23.5719 11.2515 23.5109 10.4219 23.375C10.0984 23.3234 9.33436 23.15 8.72499 23C8.11092 22.8453 7.59999 22.7188 7.58593 22.7188C7.57186 22.7188 7.56249 20.7828 7.56249 18.4156V14.1125L7.92811 14.0281C9.2078 13.7235 11.0359 12.9828 12.0578 12.3453C12.8875 11.8297 13.7219 11.0985 14.1953 10.461C14.4672 10.0953 14.8 9.42971 14.9218 8.98439C14.9968 8.73596 15.0343 8.41252 15.0625 7.88283C15.1047 6.94534 15.1843 6.75315 15.6015 6.53284C15.7984 6.42971 16.1968 6.4344 16.4125 6.54221ZM6.40468 13.3531C6.47968 13.4047 6.5453 13.5078 6.57811 13.6203C6.61093 13.7469 6.62499 15.3078 6.61561 18.5094C6.60155 22.4422 6.59218 23.225 6.53593 23.3094C6.38124 23.5391 6.41405 23.5391 4.10781 23.5531L1.9375 23.5672V18.4063V13.2453L4.10781 13.2594C6.08124 13.2735 6.28749 13.2828 6.40468 13.3531Z" fill="url(#paint3_linear_35_11711)"/>
<path d="M4.87187 15.2469C4.77344 15.3453 4.75 15.4156 4.75 15.5938C4.75 15.9031 4.90937 16.0625 5.21875 16.0625C5.39687 16.0625 5.46719 16.0391 5.56562 15.9406C5.73906 15.7625 5.73906 15.425 5.56562 15.2469C5.46719 15.1484 5.39687 15.125 5.21875 15.125C5.04062 15.125 4.97031 15.1484 4.87187 15.2469Z" fill="url(#paint4_linear_35_11711)"/>
<path d="M4.87187 17.122L4.75 17.2485V19.3439V21.4392L4.87187 21.5657C5.05 21.7392 5.3875 21.7392 5.56562 21.5657L5.6875 21.4392V19.3439V17.2485L5.56562 17.122C5.46719 17.0235 5.39687 17.0001 5.21875 17.0001C5.04062 17.0001 4.97031 17.0235 4.87187 17.122Z" fill="url(#paint5_linear_35_11711)"/>
<path d="M10.0281 6.52813C9.92969 6.62656 9.90625 6.69688 9.90625 6.875C9.90625 7.05313 9.92969 7.12344 10.0281 7.22188L10.1547 7.34375H11.3125H12.4703L12.5969 7.22188C12.7703 7.04375 12.7703 6.70625 12.5969 6.52813L12.4703 6.40625H11.3125H10.1547L10.0281 6.52813Z" fill="url(#paint6_linear_35_11711)"/>
<path d="M19.4031 6.52813C19.3047 6.62656 19.2812 6.69688 19.2812 6.875C19.2812 7.05313 19.3047 7.12344 19.4031 7.22188L19.5297 7.34375H20.6875H21.8453L21.9719 7.22188C22.1453 7.04375 22.1453 6.70625 21.9719 6.52813L21.8453 6.40625H20.6875H19.5297L19.4031 6.52813Z" fill="url(#paint7_linear_35_11711)"/>
</g>
<defs>
<linearGradient id="paint0_linear_35_11711" x1="15.898" y1="0.652849" x2="16.8388" y2="0.801031" gradientUnits="userSpaceOnUse">
<stop stop-color="#016DEA"/>
<stop offset="1" stop-color="#FA0101"/>
</linearGradient>
<linearGradient id="paint1_linear_35_11711" x1="12.4462" y1="2.53502" x2="14.3055" y2="3.50398" gradientUnits="userSpaceOnUse">
<stop stop-color="#016DEA"/>
<stop offset="1" stop-color="#FA0101"/>
</linearGradient>
<linearGradient id="paint2_linear_35_11711" x1="19.0548" y1="2.53498" x2="20.9125" y2="3.50309" gradientUnits="userSpaceOnUse">
<stop stop-color="#016DEA"/>
<stop offset="1" stop-color="#FA0101"/>
</linearGradient>
<linearGradient id="paint3_linear_35_11711" x1="9.42615" y1="6.4127" x2="25.8578" y2="16.1077" gradientUnits="userSpaceOnUse">
<stop stop-color="#016DEA"/>
<stop offset="1" stop-color="#FA0101"/>
</linearGradient>
<linearGradient id="paint4_linear_35_11711" x1="5.11996" y1="15.1712" x2="5.88199" y2="15.5718" gradientUnits="userSpaceOnUse">
<stop stop-color="#016DEA"/>
<stop offset="1" stop-color="#FA0101"/>
</linearGradient>
<linearGradient id="paint5_linear_35_11711" x1="5.11675" y1="17.2313" x2="6.0706" y2="17.3306" gradientUnits="userSpaceOnUse">
<stop stop-color="#016DEA"/>
<stop offset="1" stop-color="#FA0101"/>
</linearGradient>
<linearGradient id="paint6_linear_35_11711" x1="11.0097" y1="6.45242" x2="11.8485" y2="7.76761" gradientUnits="userSpaceOnUse">
<stop stop-color="#016DEA"/>
<stop offset="1" stop-color="#FA0101"/>
</linearGradient>
<linearGradient id="paint7_linear_35_11711" x1="20.3847" y1="6.45242" x2="21.2235" y2="7.76761" gradientUnits="userSpaceOnUse">
<stop stop-color="#016DEA"/>
<stop offset="1" stop-color="#FA0101"/>
</linearGradient>
<clipPath id="clip0_35_11711">
<rect width="24" height="24" fill="white" transform="translate(0 0.5)"/>
</clipPath>
</defs>
</svg>
