<svg width="215" height="30" viewBox="0 0 215 30" fill="none" xmlns="http://www.w3.org/2000/svg">
<path d="M25.4213 22.5459C25.4213 23.7018 25.1586 24.8 24.6838 25.778L24.638 25.8717C23.4137 28.3133 20.8734 30.0002 17.9475 30.0002C15.0143 30.0002 12.4813 28.3133 11.2569 25.8717L11.2111 25.778L0.312477 4.04462C-0.617837 2.18704 0.736662 0.000244141 2.82143 0.000244141H13.2694C14.3323 0.000244141 15.3012 0.59861 15.7759 1.54542L17.9451 5.87095L24.6814 19.3138C25.1586 20.2918 25.4213 21.3924 25.4213 22.5459Z" fill="url(#paint0_linear_28_17291)"/>
<path d="M33.0806 0.000244141C35.1653 0.000244141 36.5198 2.18704 35.5871 4.04462L26.3081 22.5459L24.6812 25.778C25.1584 24.8 25.4187 23.6994 25.4187 22.5459C25.4187 21.3924 25.156 20.2918 24.6812 19.3138L17.9473 5.87096L20.1164 1.54542C20.5912 0.59861 21.5625 0.000244141 22.6229 0.000244141H33.0806Z" fill="url(#paint1_linear_28_17291)"/>
<path d="M42.123 1.27686H55.242L60.3146 14.4417L65.3873 1.27686H78.5062L66.6117 29.362H54.0175L42.123 1.27686Z" fill="white"/>
<path d="M99.0084 30.0004C93.1525 30.0004 88.5825 28.7063 85.2984 26.118C82.0539 23.5298 80.4316 19.8631 80.4316 15.118C80.4316 10.4513 81.8956 6.76507 84.8236 4.05919C87.7911 1.35331 92.0446 0.000366211 97.584 0.000366211C101.105 0.000366211 104.113 0.647426 106.605 1.94154C109.138 3.23566 111.037 5.00037 112.303 7.23566C113.609 9.47095 114.262 11.9808 114.262 14.7651V18.5886H93.1327C94.2802 20.6278 96.8718 21.6474 100.908 21.6474C102.767 21.6474 104.706 21.5102 106.724 21.2357C108.782 20.9219 110.522 20.4906 111.947 19.9415V27.8827C110.364 28.5102 108.406 29.02 106.071 29.4121C103.776 29.8043 101.422 30.0004 99.0084 30.0004ZM101.679 11.3533C101.204 9.39252 99.7602 8.41213 97.3466 8.41213C95.0121 8.41213 93.6075 9.39252 93.1327 11.3533H101.679Z" fill="white"/>
<path d="M115.537 0.890116H128.129V3.44073C129.212 2.41257 130.682 1.58214 132.539 0.949431C134.396 0.316721 136.388 0.000366211 138.516 0.000366211V10.3215C136.234 10.3215 134.164 10.6378 132.307 11.2705C130.489 11.8637 129.251 12.7139 128.593 13.8211V29.3621H115.537V0.890116Z" fill="white"/>
<path d="M154.936 30.0004C152.459 30.0004 149.885 29.7847 147.212 29.3533C144.578 28.9219 142.476 28.2945 140.903 27.471V18.5298C142.554 19.471 144.578 20.2749 146.976 20.9415C149.374 21.6082 151.516 21.9415 153.403 21.9415C154.307 21.9415 154.955 21.9023 155.348 21.8239C155.741 21.7455 155.938 21.569 155.938 21.2945C155.938 21.0984 155.761 20.9415 155.407 20.8239C155.054 20.7063 154.582 20.5886 153.992 20.471C152.577 20.1964 151.319 19.9023 150.219 19.5886C146.642 18.4906 144.107 17.2357 142.613 15.8239C141.159 14.3729 140.432 12.3337 140.432 9.70625C140.432 6.41213 141.729 3.98076 144.323 2.41213C146.917 0.804288 150.494 0.000366211 155.054 0.000366211C157.176 0.000366211 159.515 0.235661 162.07 0.70625C164.664 1.17684 166.57 1.78468 167.789 2.52978V11.471C166.61 10.6474 164.939 9.94154 162.777 9.35331C160.615 8.72586 158.689 8.41213 156.999 8.41213C156.213 8.41213 155.565 8.47096 155.054 8.5886C154.543 8.70625 154.287 8.86311 154.287 9.05919C154.287 9.25527 154.503 9.43174 154.936 9.5886C155.368 9.74547 156.056 9.90233 156.999 10.0592C158.847 10.4121 159.888 10.6278 160.124 10.7062C162.718 11.3729 164.703 12.1572 166.079 13.0592C167.494 13.9219 168.457 14.9415 168.968 16.118C169.518 17.2945 169.793 18.7847 169.793 20.5886C169.793 23.4513 168.516 25.7455 165.961 27.471C163.406 29.1572 159.731 30.0004 154.936 30.0004Z" fill="white"/>
<path d="M189.939 30.0004C184.194 30.0004 179.71 28.7063 176.488 26.118C173.305 23.5298 171.713 19.8631 171.713 15.118C171.713 10.4513 173.149 6.76507 176.022 4.05919C178.934 1.35331 183.107 0.000366211 188.542 0.000366211C191.997 0.000366211 194.947 0.647426 197.393 1.94154C199.877 3.23566 201.741 5.00037 202.983 7.23566C204.264 9.47095 204.905 11.9808 204.905 14.7651V18.5886H184.174C185.3 20.6278 187.843 21.6474 191.803 21.6474C193.627 21.6474 195.529 21.5102 197.509 21.2357C199.528 20.9219 201.236 20.4906 202.634 19.9415V27.8827C201.081 28.5102 199.159 29.02 196.869 29.4121C194.617 29.8043 192.307 30.0004 189.939 30.0004ZM192.56 11.3533C192.094 9.39252 190.677 8.41213 188.309 8.41213C186.018 8.41213 184.64 9.39252 184.174 11.3533H192.56Z" fill="white"/>
<path d="M208.447 25.3297L207.139 28.8939H206.271L204.964 25.3297H205.73L206.71 28.1637L207.686 25.3297H208.447ZM208.707 25.8301V25.1714H209.937V28.8939H209.202V25.8301H208.707ZM211.042 28.9297C210.913 28.9297 210.805 28.8905 210.72 28.8122C210.639 28.7305 210.598 28.6301 210.598 28.5109C210.598 28.3918 210.639 28.2931 210.72 28.2148C210.805 28.1331 210.913 28.0922 211.042 28.0922C211.168 28.0922 211.272 28.1331 211.353 28.2148C211.435 28.2931 211.476 28.3918 211.476 28.5109C211.476 28.6301 211.435 28.7305 211.353 28.8122C211.272 28.8905 211.168 28.9297 211.042 28.9297ZM211.97 26.9841C211.97 26.3952 212.076 25.9339 212.287 25.6003C212.501 25.2667 212.855 25.0999 213.349 25.0999C213.842 25.0999 214.195 25.2667 214.406 25.6003C214.62 25.9339 214.728 26.3952 214.728 26.9841C214.728 27.5765 214.62 28.0412 214.406 28.3782C214.195 28.7152 213.842 28.8837 213.349 28.8837C212.855 28.8837 212.501 28.7152 212.287 28.3782C212.076 28.0412 211.97 27.5765 211.97 26.9841ZM214.023 26.9841C214.023 26.7322 214.006 26.5211 213.972 26.3509C213.941 26.1773 213.876 26.036 213.778 25.9271C213.682 25.8182 213.539 25.7637 213.349 25.7637C213.158 25.7637 213.013 25.8182 212.915 25.9271C212.819 26.036 212.755 26.1773 212.721 26.3509C212.69 26.5211 212.675 26.7322 212.675 26.9841C212.675 27.2429 212.69 27.4607 212.721 27.6377C212.751 27.8114 212.816 27.9526 212.915 28.0616C213.013 28.1671 213.158 28.2199 213.349 28.2199C213.539 28.2199 213.684 28.1671 213.783 28.0616C213.882 27.9526 213.946 27.8114 213.977 27.6377C214.008 27.4607 214.023 27.2429 214.023 26.9841Z" fill="white"/>
<defs>
<linearGradient id="paint0_linear_28_17291" x1="0.0136197" y1="15.0001" x2="25.4207" y2="15.0001" gradientUnits="userSpaceOnUse">
<stop stop-color="#FA4001"/>
<stop offset="0.333333" stop-color="#CD0D14"/>
<stop offset="0.666667" stop-color="#A91D1E"/>
<stop offset="1" stop-color="#812924"/>
</linearGradient>
<linearGradient id="paint1_linear_28_17291" x1="17.9476" y1="12.8899" x2="35.8882" y2="12.8899" gradientUnits="userSpaceOnUse">
<stop stop-color="#016DEA"/>
<stop offset="0.334096" stop-color="#005FCD"/>
<stop offset="0.634882" stop-color="#0052B1"/>
<stop offset="1" stop-color="#003B7E"/>
</linearGradient>
</defs>
</svg>
